<?xml version="1.0" standalone="no"?>
<!DOCTYPE svg PUBLIC "-//W3C//DTD SVG 20010904//EN"
 "http://www.w3.org/TR/2001/REC-SVG-20010904/DTD/svg10.dtd">
<svg version="1.0" xmlns="http://www.w3.org/2000/svg"
 width="512.000000pt" height="512.000000pt" viewBox="0 0 512.000000 512.000000"
 preserveAspectRatio="xMidYMid meet">
<metadata>
Created by potrace 1.14, written by Peter Selinger 2001-2017
</metadata>
<g transform="translate(0.000000,512.000000) scale(0.100000,-0.100000)"
fill="#000000" stroke="none">
<path d="M2687 4314 c-3 -4 -155 -7 -604 -13 -40 -1 -53 -5 -53 -16 0 -15
-131 -20 -467 -16 l-103 1 0 -35 c0 -19 5 -35 11 -35 6 0 4 -7 -4 -15 -13 -12
-15 -59 -15 -287 0 -150 -1 -297 -1 -326 l-1 -53 -222 3 c-255 2 -288 1 -340
-7 l-38 -7 0 -69 0 -69 44 0 c42 0 45 2 51 31 5 21 3 34 -6 39 -19 12 48 17
95 7 22 -4 52 -5 68 -2 15 4 28 2 28 -3 0 -5 20 -6 47 -2 94 15 104 -14 81
-219 -1 -8 -10 -16 -20 -19 -10 -2 -18 -11 -18 -18 0 -12 -21 -14 -115 -12
-86 2 -114 6 -111 15 3 6 -4 15 -15 18 -10 4 -19 11 -19 16 0 5 -5 8 -12 7 -9
-2 -12 15 -12 58 l1 62 -40 6 c-22 4 -41 5 -43 3 -2 -2 -5 -99 -7 -215 l-2
-212 -100 -1 c-55 -1 -104 -2 -110 -4 -5 -1 -20 -3 -32 -3 -16 -2 -23 -8 -23
-22 0 -11 -7 -20 -15 -20 -12 0 -15 13 -15 60 l0 60 -34 0 -34 0 5 -102 c2
-57 4 -110 3 -118 0 -8 0 -109 -1 -225 -1 -115 -4 -214 -7 -220 -4 -5 -8 -18
-9 -27 -2 -10 -4 -23 -5 -29 -2 -8 16 -16 47 -21 57 -10 86 -31 67 -50 -8 -8
-15 -8 -28 3 -16 12 -17 12 -11 -4 7 -19 -12 -47 -33 -47 -7 0 -9 -8 -5 -19 3
-12 0 -21 -10 -25 -12 -4 -15 -23 -15 -86 l0 -81 43 3 42 3 3 82 3 82 147 3
c81 2 152 2 159 0 8 -2 13 -29 15 -70 l3 -67 60 2 c33 2 84 3 113 4 53 1 70
14 30 22 -22 4 -22 4 -2 6 12 0 24 9 26 19 5 17 17 18 111 18 58 -1 109 -4
113 -8 4 -5 16 -8 27 -8 17 0 18 -2 6 -16 -10 -13 -10 -17 2 -25 12 -8 12 -10
-1 -19 -12 -8 -13 -11 -1 -19 9 -6 10 -11 3 -15 -6 -4 -9 -13 -6 -20 3 -8 -5
-15 -23 -19 -15 -3 -38 -15 -50 -26 -26 -24 -48 -28 -39 -6 12 32 -101 57
-157 36 l-25 -10 -2 -165 -1 -166 25 0 c22 0 25 4 22 34 -2 18 -6 38 -11 45
-5 9 2 12 26 9 23 -2 34 -8 34 -19 0 -26 30 -48 82 -59 98 -21 102 -23 54 -29
-25 -4 -46 -12 -49 -20 -4 -11 6 -13 54 -8 74 8 765 18 742 11 -10 -3 -18 -10
-18 -16 0 -7 25 -9 78 -5 158 13 1515 10 1507 -3 -10 -17 138 -12 171 5 39 20
78 20 70 0 -4 -12 3 -15 29 -15 24 0 35 5 35 15 0 12 24 15 137 17 90 2 138 7
140 14 2 6 -5 14 -17 17 -24 6 -26 30 -3 48 14 12 16 12 11 -2 -4 -11 4 -19
29 -28 40 -15 52 -9 29 14 -9 9 -17 22 -17 28 -5 52 -5 297 0 305 4 7 214 21
338 22 7 0 10 6 7 14 -3 9 6 19 25 27 l31 14 0 550 0 551 -200 -4 -200 -4 -1
114 c0 62 -1 155 -2 205 l-2 93 -200 2 -200 3 -1 105 c-1 58 -4 131 -7 162 -3
31 -2 59 1 63 3 3 7 74 7 156 1 144 0 151 -19 159 -17 7 -18 9 -3 9 12 1 17
10 18 34 1 36 -2 81 -6 85 -6 7 -117 3 -128 -4 -6 -5 -136 -7 -287 -4 -236 4
-275 7 -275 20 0 13 -32 15 -222 16 -122 1 -224 0 -226 -2z m3 -55 c12 -9 11
-10 -7 -6 -13 3 -26 1 -29 -4 -3 -5 -11 -9 -17 -9 -7 0 -3 7 7 15 23 18 26 18
46 4z m700 -7 c0 -13 -12 -22 -22 -16 -10 6 -1 24 13 24 5 0 9 -4 9 -8z m290
-22 c0 -5 -2 -10 -4 -10 -3 0 -8 5 -11 10 -3 6 -1 10 4 10 6 0 11 -4 11 -10z
m-595 -97 c-1 -38 -4 -70 -5 -73 -1 -3 -2 -9 -1 -13 1 -4 -6 -21 -14 -37 -8
-16 -16 -41 -17 -55 -1 -14 -9 -25 -16 -25 -9 0 -12 -6 -8 -16 5 -13 2 -15
-14 -11 -11 3 -23 1 -26 -4 -8 -13 -134 -4 -166 12 -21 11 -28 22 -29 44 0 17
-3 41 -7 55 -3 14 -6 44 -6 67 0 33 5 47 27 67 30 28 62 34 70 14 4 -9 8 -10
14 -2 4 5 37 9 73 8 74 -1 86 2 69 22 -9 12 -5 14 24 14 l35 0 -3 -67z m585
52 c0 -8 3 -15 8 -15 4 0 8 -11 8 -25 2 -34 21 -55 42 -48 15 6 15 4 4 -10 -8
-9 -10 -21 -6 -28 10 -17 7 -67 -7 -101 -9 -22 -14 -26 -25 -17 -13 11 -109 9
-243 -5 -36 -4 -44 -2 -48 14 -3 11 -9 20 -14 20 -5 0 -9 14 -9 30 0 17 -4 30
-9 30 -12 0 -6 72 9 100 23 43 37 50 112 58 132 14 178 13 178 -3z m-1874 -5
c9 0 13 -4 10 -9 -10 -16 23 -34 49 -27 40 10 58 -14 51 -72 -10 -95 -7 -93
-100 -86 -44 3 -107 5 -139 5 -81 -3 -94 3 -101 47 -4 20 -9 44 -12 53 -2 9
11 31 31 52 28 29 44 37 70 37 19 0 35 -4 35 -10 0 -16 36 -12 50 5 7 9 20 13
27 10 8 -3 21 -5 29 -5z m588 -5 c3 -9 -1 -18 -10 -22 -19 -7 -39 11 -30 26
10 16 33 13 40 -4z m1375 -15 c-6 -5 -19 -6 -27 -2 -13 4 -12 7 4 12 23 9 41
1 23 -10z m-569 -156 c0 -8 -8 -14 -18 -14 -25 0 -34 11 -21 26 13 15 39 7 39
-12z m-472 -11 c5 -17 -26 -29 -40 -15 -6 6 -7 15 -3 22 9 14 37 9 43 -7z
m-918 -129 c10 -10 15 -36 16 -84 0 -61 -3 -74 -25 -99 -27 -31 -34 -33 -196
-45 l-60 -5 1 78 c2 89 17 122 67 141 18 6 40 16 50 21 11 6 25 6 38 -1 11 -6
25 -9 32 -6 7 2 4 5 -5 5 -10 1 -18 6 -18 12 0 15 81 1 100 -17z m649 -80 c-9
-11 -15 -12 -25 -3 -11 9 -12 15 -3 25 9 11 15 12 25 3 11 -9 12 -15 3 -25z
m1251 -74 c0 -5 -4 -10 -9 -10 -6 0 -13 5 -16 10 -3 6 1 10 9 10 9 0 16 -4 16
-10z m-14 -34 c8 -9 24 -16 35 -16 10 0 19 -4 19 -10 0 -5 -4 -10 -9 -10 -5 0
-13 -9 -16 -20 -8 -24 -25 -17 -19 8 2 10 -6 25 -23 36 -14 11 -23 15 -20 9 5
-7 -6 -11 -28 -11 -32 0 -46 14 -29 30 10 11 74 -1 90 -16z m-289 -12 c-3 -3
-12 -4 -19 -1 -8 3 -5 6 6 6 11 1 17 -2 13 -5z m129 -5 c3 -6 1 -16 -5 -22 -8
-8 -17 -5 -33 11 l-22 22 26 0 c15 0 30 -5 34 -11z m-1182 -15 c3 -9 4 -20 0
-25 -8 -13 -32 -11 -37 4 -11 32 25 53 37 21z m-160 -23 c4 -5 3 -16 0 -25 -5
-12 -10 -13 -26 -5 -15 8 -17 13 -7 25 13 16 25 18 33 5z m1351 -41 c-6 -10
-43 -1 -51 12 -4 6 0 14 7 19 15 9 52 -18 44 -31z m75 36 c0 -3 -4 -8 -10 -11
-5 -3 -10 -1 -10 4 0 6 5 11 10 11 6 0 10 -2 10 -4z m130 -47 c0 -5 -9 -9 -20
-9 -19 0 -26 11 -14 23 8 8 34 -3 34 -14z m-1179 -19 c14 0 18 -4 12 -12 -4
-7 -8 -17 -9 -23 0 -5 -2 -16 -2 -22 -3 -19 -62 -17 -62 2 0 8 -5 15 -11 15
-8 0 -7 5 1 15 11 13 15 13 22 3 6 -8 7 -5 3 11 -5 16 -4 21 4 17 6 -4 11 -1
12 6 0 10 2 10 6 1 2 -7 14 -13 24 -13z m357 -33 c2 -10 -3 -17 -12 -17 -18 0
-29 16 -21 31 9 14 29 6 33 -14z m712 7 c0 -2 -9 -4 -21 -4 -11 0 -18 4 -14
10 5 8 35 3 35 -6z m-2420 -54 c0 -5 -2 -10 -4 -10 -3 0 -8 5 -11 10 -3 6 -1
10 4 10 6 0 11 -4 11 -10z m2722 -86 c4 -5 10 -33 13 -60 6 -39 4 -53 -9 -63
-9 -7 -16 -18 -16 -23 0 -13 -31 -43 -55 -53 -60 -25 -102 -28 -136 -11 -18 9
-41 16 -52 16 -14 0 -17 4 -11 18 4 9 6 36 5 59 -2 52 22 93 55 93 13 0 24 5
24 10 0 6 9 14 20 18 31 11 154 9 162 -4z m-2125 -20 c8 -21 -13 -42 -28 -27
-13 13 -5 43 11 43 6 0 13 -7 17 -16z m723 -17 c0 -21 -12 -28 -27 -16 -19 16
-16 29 7 29 11 0 20 -6 20 -13z m198 1 c-6 -18 -28 -21 -28 -4 0 9 7 16 16 16
9 0 14 -5 12 -12z m1347 -72 c0 -13 -8 -20 -27 -22 -31 -3 -32 -1 -17 27 13
25 44 21 44 -5z m65 14 c0 -5 -4 -10 -10 -10 -5 0 -10 5 -10 10 0 6 5 10 10
10 6 0 10 -4 10 -10z m-2222 -162 c-3 -7 -11 -13 -18 -13 -7 0 -15 6 -17 13
-3 7 4 12 17 12 13 0 20 -5 18 -12z m2272 -58 c0 -5 -7 -10 -15 -10 -8 0 -15
5 -15 10 0 6 7 10 15 10 8 0 15 -4 15 -10z m-950 -10 c0 -5 -2 -10 -4 -10 -3
0 -8 5 -11 10 -3 6 -1 10 4 10 6 0 11 -4 11 -10z m-733 -15 c13 -9 20 -22 17
-30 -8 -20 -34 -19 -34 0 0 9 -7 18 -15 21 -8 4 -12 10 -9 15 7 13 16 11 41
-6z m1173 5 c0 -5 -7 -10 -15 -10 -8 0 -15 5 -15 10 0 6 7 10 15 10 8 0 15 -4
15 -10z m-780 -10 c0 -5 7 -10 15 -10 8 0 15 -4 15 -10 0 -5 -11 -10 -25 -10
-18 0 -25 5 -25 20 0 11 5 20 10 20 6 0 10 -4 10 -10z m-1949 -33 c-5 -5 -5
-22 -1 -38 7 -22 5 -29 -5 -29 -8 0 -18 7 -23 16 -8 15 -10 15 -15 0 -13 -32
-27 -15 -27 33 l0 48 40 -10 c23 -7 36 -15 31 -20z m749 -28 c68 -24 147 -77
187 -127 16 -20 44 -68 62 -106 28 -58 34 -83 38 -165 9 -162 -34 -278 -140
-378 -98 -93 -199 -128 -352 -121 -118 4 -181 33 -276 125 -62 60 -74 67 -105
64 -24 -2 -34 2 -34 12 0 10 8 13 26 9 25 -5 26 -3 20 24 -54 246 -44 354 46
496 25 38 35 63 31 78 -5 18 -2 20 18 15 15 -3 37 2 59 15 149 87 283 106 420
59z m1980 -4 c97 -34 189 -115 235 -205 62 -122 72 -250 30 -378 -41 -123
-101 -198 -207 -260 -127 -73 -336 -68 -471 11 -97 57 -187 194 -206 312 -25
163 19 301 135 417 122 122 316 163 484 103z m-1820 -5 c13 -8 13 -10 -2 -10
-9 0 -20 5 -23 10 -8 13 5 13 25 0z m2605 -10 c0 -22 -39 -19 -43 3 -3 15 1
18 20 15 12 -2 23 -10 23 -18z m-1488 3 c10 -4 13 -33 13 -114 l0 -109 -437 2
-436 3 0 88 c0 48 -4 87 -8 87 -5 0 -9 9 -9 20 0 17 8 20 93 22 160 6 770 6
784 1z m938 -80 c5 -19 2 -23 -14 -23 -27 0 -34 15 -21 41 13 23 24 17 35 -18z
m-2785 7 c3 -4 12 -10 20 -13 8 -3 -3 -5 -25 -4 -30 1 -41 7 -43 20 -3 16 0
18 20 12 12 -4 25 -11 28 -15z m-265 -79 c-2 -28 -6 -54 -9 -60 -4 -5 -2 -12
4 -16 15 -9 12 -25 -5 -25 -8 0 -15 6 -15 14 0 8 -10 14 -24 14 -19 0 -22 -5
-18 -22 4 -21 4 -21 -11 -1 -8 11 -19 16 -23 12 -5 -4 -2 -12 6 -18 12 -7 13
-11 2 -18 -17 -10 -15 -21 5 -43 22 -25 40 -22 59 7 13 20 19 23 30 14 20 -16
17 -44 -4 -46 -9 -1 -22 -3 -27 -4 -21 -6 -74 13 -91 32 -12 13 -30 19 -59 19
-24 0 -48 6 -54 14 -14 16 -17 88 -5 107 9 15 11 20 13 44 1 9 11 15 27 15 17
0 23 -4 18 -12 -5 -8 -2 -9 12 -3 10 5 43 10 73 11 29 2 56 6 59 9 3 3 13 5
22 5 14 0 17 -9 15 -49z m119 12 c7 -16 -8 -33 -30 -33 -6 0 -11 11 -11 25 0
29 31 35 41 8z m3394 -25 c-6 -18 -28 -21 -28 -4 0 9 7 16 16 16 9 0 14 -5 12
-12z m-258 -68 c0 -5 -4 -10 -9 -10 -6 0 -13 5 -16 10 -3 6 1 10 9 10 9 0 16
-4 16 -10z m347 4 c-3 -3 -12 -4 -19 -1 -8 3 -5 6 6 6 11 1 17 -2 13 -5z
m-3637 -27 c0 -2 -10 -12 -22 -23 l-23 -19 19 23 c18 21 26 27 26 19z m3216
-67 c19 0 18 -19 -2 -27 -23 -9 -33 8 -26 42 6 26 7 27 10 8 2 -13 10 -23 18
-23z m-3496 0 c0 -5 -8 -10 -17 -10 -15 0 -16 2 -3 10 19 12 20 12 20 0z m387
-16 c-3 -3 -12 -4 -19 -1 -8 3 -5 6 6 6 11 1 17 -2 13 -5z m3203 -169 c0 -8
-6 -15 -14 -15 -17 0 -28 14 -19 24 12 12 33 6 33 -9z m-1409 -40 c0 -5 -9
-11 -21 -13 -20 -3 -27 8 -13 22 10 9 34 3 34 -9z m-2114 -6 c11 -11 150 -16
160 -6 3 4 21 0 41 -8 26 -11 38 -12 48 -4 10 8 14 8 14 0 0 -6 -5 -11 -11
-11 -8 0 -8 -4 1 -14 14 -18 12 -125 -3 -144 -8 -10 -7 -16 4 -23 11 -7 9 -9
-9 -9 -13 0 -21 -4 -18 -8 8 -13 -158 -6 -183 7 -25 14 -55 67 -47 87 3 8 2
14 -2 14 -6 0 -10 19 -12 73 -1 10 -9 17 -21 17 -21 0 -22 1 -13 24 7 18 35
21 51 5z m3755 -39 c14 -11 26 -30 26 -42 1 -13 3 -42 5 -66 3 -28 -1 -46 -10
-54 -9 -7 -12 -21 -8 -35 5 -22 2 -23 -40 -23 -47 0 -54 7 -32 29 10 11 7 12
-14 7 -23 -5 -27 -3 -27 17 -1 12 -3 45 -7 73 -5 47 -3 53 25 82 35 37 48 39
82 12z m-3822 -29 c0 -5 -6 -14 -14 -20 -12 -10 -13 -8 -9 8 5 21 23 30 23 12z
m500 -11 c0 -5 -5 -10 -11 -10 -5 0 -7 5 -4 10 3 6 8 10 11 10 2 0 4 -4 4 -10z
m50 0 c0 -5 -5 -10 -11 -10 -5 0 -7 5 -4 10 3 6 8 10 11 10 2 0 4 -4 4 -10z
m1690 -139 c0 -13 -28 -22 -35 -11 -3 4 1 11 7 13 20 8 28 8 28 -2z m1504 -26
c-7 -16 -24 -21 -24 -6 0 8 7 13 27 20 1 1 0 -6 -3 -14z m-3084 -25 c11 -7 12
-12 3 -21 -13 -13 -33 -4 -33 17 0 16 9 18 30 4z m1844 -7 c3 -10 9 -24 12
-30 4 -9 -3 -13 -20 -13 -31 0 -43 23 -24 44 17 20 24 20 32 -1z m-824 -183
l0 -81 -97 3 -98 3 -3 78 -3 77 101 0 100 0 0 -80z m502 0 l3 -80 -157 0 -158
0 0 80 0 80 154 0 154 0 4 -80z m390 6 c2 -39 1 -75 -3 -79 -3 -4 -46 -7 -95
-5 l-89 3 -3 78 -3 77 95 -1 94 -2 4 -71z m1138 14 c0 -5 -4 -10 -10 -10 -5 0
-10 5 -10 10 0 6 5 10 10 10 6 0 10 -4 10 -10z m267 -6 c-3 -3 -12 -4 -19 -1
-8 3 -5 6 6 6 11 1 17 -2 13 -5z m40 0 c-3 -3 -12 -4 -19 -1 -8 3 -5 6 6 6 11
1 17 -2 13 -5z m-639 -28 c19 3 32 1 32 -5 0 -6 5 -11 11 -11 16 0 41 -29 34
-40 -3 -5 -1 -10 4 -10 6 0 11 -13 11 -28 0 -16 3 -32 6 -35 10 -10 13 -67 3
-67 -5 0 -6 -6 -3 -14 3 -8 0 -17 -5 -21 -6 -3 -9 -11 -6 -16 4 -5 1 -9 -5 -9
-7 0 -9 -8 -5 -20 5 -16 3 -19 -11 -13 -13 5 -16 3 -11 -10 8 -21 -10 -32 -28
-17 -17 14 -39 4 -31 -15 6 -16 -75 -29 -85 -13 -4 7 -9 7 -13 -1 -10 -15 -46
-13 -76 4 -14 8 -21 14 -17 15 5 0 5 6 1 12 -5 7 -9 29 -11 48 -2 19 -7 36
-13 38 -5 2 -7 14 -4 27 3 12 1 26 -5 29 -13 8 6 54 31 77 10 9 18 23 18 32 0
9 5 19 11 22 6 4 8 14 5 22 -4 11 -2 13 9 9 8 -3 20 1 27 8 9 9 24 10 53 5 23
-4 56 -6 73 -3z m-2332 -18 c2 -20 -17 -30 -36 -18 -18 11 -4 42 17 38 9 -2
17 -11 19 -20z m1924 -9 c0 -5 -7 -9 -15 -9 -15 0 -20 12 -9 23 8 8 24 -1 24
-14z m43 -53 c6 -16 -2 -28 -14 -20 -12 7 -11 34 0 34 5 0 11 -6 14 -14z
m-663 -17 c0 -18 -2 -20 -15 -9 -13 11 -13 15 -3 21 18 12 18 12 18 -12z m630
5 c0 -8 -4 -12 -10 -9 -5 3 -10 10 -10 16 0 5 5 9 10 9 6 0 10 -7 10 -16z m0
-48 c0 -8 12 -16 27 -18 14 -2 29 -9 31 -17 4 -11 0 -12 -14 -6 -11 5 -31 8
-46 7 -23 -1 -28 3 -28 23 0 16 6 25 15 25 8 0 15 -6 15 -14z m-1232 -19 c4
-20 -25 -34 -40 -19 -15 15 -1 44 19 40 10 -2 19 -11 21 -21z m-1157 -80 c-13
-13 -26 -3 -16 12 3 6 11 8 17 5 6 -4 6 -10 -1 -17z m2399 8 c0 -8 0 -18 1
-22 0 -4 -4 -9 -10 -11 -6 -2 -11 8 -11 22 0 14 5 26 10 26 6 0 10 -7 10 -15z
m-300 -5 c0 -5 -4 -10 -10 -10 -5 0 -10 5 -10 10 0 6 5 10 10 10 6 0 10 -4 10
-10z m968 -50 c7 -11 8 -20 2 -20 -5 0 -14 9 -20 20 -6 11 -7 20 -3 20 5 0 14
-9 21 -20z m-1148 0 c0 -5 -4 -10 -10 -10 -5 0 -10 5 -10 10 0 6 5 10 10 10 6
0 10 -4 10 -10z m-531 -39 c12 -8 13 -12 1 -26 -12 -14 -15 -14 -28 -1 -8 8
-11 19 -8 25 9 13 16 14 35 2z m941 -10 c0 -5 -7 -14 -15 -21 -13 -10 -15 -9
-15 9 0 12 6 21 15 21 8 0 15 -4 15 -9z m-680 -17 c0 -2 -7 -4 -15 -4 -8 0
-15 4 -15 10 0 5 7 7 15 4 8 -4 15 -8 15 -10z m-1364 -10 c-3 -9 -6 -18 -6
-20 0 -2 -7 -4 -15 -4 -13 0 -14 4 -5 20 13 24 35 27 26 4z"/>
<path d="M2910 3940 c0 -5 5 -10 11 -10 5 0 7 5 4 10 -3 6 -8 10 -11 10 -2 0
-4 -4 -4 -10z"/>
<path d="M1865 4120 c-3 -5 1 -10 10 -10 9 0 13 5 10 10 -3 6 -8 10 -10 10 -2
0 -7 -4 -10 -10z"/>
<path d="M810 2830 c0 -5 5 -10 11 -10 5 0 7 5 4 10 -3 6 -8 10 -11 10 -2 0
-4 -4 -4 -10z"/>
<path d="M650 2729 c0 -5 5 -9 10 -9 6 0 12 0 15 0 14 0 8 13 -7 16 -10 1 -18
-2 -18 -7z"/>
<path d="M1020 3430 c0 -5 7 -10 16 -10 8 0 12 5 9 10 -3 6 -10 10 -16 10 -5
0 -9 -4 -9 -10z"/>
<path d="M4650 1995 c0 -15 38 -40 47 -31 7 7 -26 46 -39 46 -4 0 -8 -7 -8
-15z"/>
<path d="M920 1955 c0 -8 6 -15 14 -15 22 0 28 17 10 24 -22 9 -24 8 -24 -9z"/>
<path d="M4640 1946 c0 -10 9 -16 21 -16 24 0 21 23 -4 28 -10 2 -17 -3 -17
-12z"/>
<path d="M4709 1423 c0 -21 -1 -66 -1 -100 0 -59 -2 -64 -35 -89 -19 -14 -39
-38 -44 -52 -10 -25 -12 -25 -23 -10 -10 13 -16 14 -24 6 -16 -16 -22 -7 -15
20 4 16 17 25 49 33 l44 11 0 84 c0 46 -5 86 -10 89 -18 11 -68 -5 -73 -24 -2
-10 -10 -18 -18 -19 -23 -1 -90 -20 -96 -26 -4 -3 4 -17 16 -30 l22 -23 -68
-6 c-37 -4 -94 -7 -125 -7 l-58 0 0 75 0 75 -169 -1 c-132 -1 -168 -4 -165
-14 5 -13 -25 -25 -66 -25 -19 0 -21 3 -12 12 7 7 12 16 12 21 0 10 -396 4
-406 -5 -2 -3 -5 -25 -6 -49 l0 -44 -177 3 c-97 2 -177 5 -179 7 -1 1 -4 25
-5 54 l-2 51 -707 0 -706 0 5 -21 c6 -20 3 -21 -61 -14 l-66 7 0 -46 0 -46
-117 0 -118 0 3 60 4 60 -329 0 -329 0 -1 -82 c-1 -46 6 -108 14 -140 10 -37
13 -72 8 -105 -4 -26 -9 -182 -11 -345 l-5 -298 116 0 115 0 0 -154 0 -153
-52 -7 c-29 -3 -68 -6 -85 -6 l-33 0 0 -75 0 -75 420 0 420 0 0 625 0 625 95
0 95 0 0 -625 0 -625 845 0 c465 0 845 3 845 6 0 10 -42 44 -49 40 -3 -3 -11
7 -18 20 -9 19 -8 24 3 24 8 0 14 -5 14 -11 0 -5 5 -7 11 -3 8 4 10 89 7 285
-2 154 0 279 5 279 5 0 5 9 2 21 -4 11 -7 40 -7 65 0 31 -4 44 -14 44 -16 0
-19 16 -4 25 6 3 10 31 10 61 l0 54 315 0 315 0 1 -47 c1 -27 0 -79 -2 -118
-2 -58 -2 -468 0 -687 l1 -58 96 0 c61 0 93 4 89 10 -3 6 -2 10 4 10 5 0 13
-4 16 -10 3 -5 35 -10 71 -10 36 0 64 4 64 10 0 6 9 10 20 10 11 0 20 -4 20
-10 0 -6 30 -10 71 -10 l71 0 -5 311 c-3 262 -2 312 10 316 12 5 14 48 11 264
-2 141 0 261 5 265 4 4 7 -6 7 -22 0 -49 11 -74 31 -74 11 0 19 5 19 12 0 9 3
9 12 0 10 -10 10 -15 -1 -21 -9 -6 -10 -11 -2 -15 8 -5 11 -113 11 -361 l0
-354 -37 -3 c-31 -2 -39 -7 -41 -26 l-3 -22 159 0 c88 0 167 -3 176 -6 22 -9
21 19 -2 39 -10 10 -31 17 -45 17 l-27 0 0 363 c0 262 3 366 12 375 8 8 8 15
-1 26 -8 10 -9 16 -1 21 7 4 7 12 0 26 -6 11 -8 23 -5 28 3 5 -1 16 -9 24 -22
22 -28 55 -29 169 l-2 103 -42 3 -43 3 -1 -38z m-2964 -3 c3 -5 -3 -10 -15
-10 -12 0 -18 5 -15 10 3 6 10 10 15 10 5 0 12 -4 15 -10z m945 -60 c0 -5 -2
-10 -4 -10 -3 0 -8 5 -11 10 -3 6 -1 10 4 10 6 0 11 -4 11 -10z m103 -61 c-15
-15 -47 -7 -51 13 -4 21 28 29 48 11 10 -9 11 -16 3 -24z m934 -3 c-2 -6 -16
-12 -31 -14 -25 -3 -26 -1 -17 16 11 21 55 20 48 -2z m176 8 c9 -10 -4 -34
-18 -34 -17 0 -28 17 -20 30 7 11 28 13 38 4z m-1833 -24 c0 -5 -9 -10 -21
-10 -11 0 -17 5 -14 10 3 6 13 10 21 10 8 0 14 -4 14 -10z m1072 -101 c2 -55
1 -103 -1 -105 -2 -2 -45 -4 -95 -4 l-91 0 3 105 3 105 89 0 89 0 3 -101z
m-1832 65 c0 -17 -36 -19 -46 -3 -8 14 14 29 33 22 7 -3 13 -11 13 -19z m-463
-37 c-2 -7 -13 -13 -25 -15 -16 -3 -22 2 -22 16 0 10 3 22 6 25 10 10 46 -13
41 -26z m3377 8 c-4 -8 -10 -15 -15 -15 -5 0 -9 7 -9 15 0 8 7 15 15 15 9 0
12 -6 9 -15z m-2384 -10 c0 -8 -4 -15 -9 -15 -13 0 -22 16 -14 24 11 11 23 6
23 -9z m1035 -15 c3 -5 1 -10 -4 -10 -6 0 -11 5 -11 10 0 6 2 10 4 10 3 0 8
-4 11 -10z m940 -40 c11 -17 -5 -32 -21 -19 -7 6 -11 15 -8 20 7 12 21 11 29
-1z m78 -14 c3 -8 3 -17 0 -20 -8 -7 -43 12 -43 24 0 15 37 12 43 -4z m727
-11 c0 -8 -2 -15 -4 -15 -2 0 -6 7 -10 15 -3 8 -1 15 4 15 6 0 10 -7 10 -15z
m-1949 -83 c6 -17 5 -24 -6 -28 -19 -8 -49 22 -41 42 8 22 37 13 47 -14z
m-247 -21 c3 -4 -1 -17 -9 -27 -16 -23 -40 -7 -29 19 7 18 29 23 38 8z m1154
-2 c-2 -6 -8 -10 -13 -10 -5 0 -11 4 -13 10 -2 6 4 11 13 11 9 0 15 -5 13 -11z
m-2048 -40 c0 -20 -24 -26 -35 -9 -4 6 -4 17 -1 25 7 20 36 7 36 -16z m2446
10 c3 -6 1 -16 -4 -21 -13 -13 -45 8 -36 23 7 12 31 11 40 -2z m-1806 -95 c0
-8 -7 -14 -15 -14 -15 0 -21 21 -9 33 10 9 24 -2 24 -19z m-1060 -20 c0 -20
-30 -30 -40 -13 -11 17 7 40 26 32 8 -3 14 -12 14 -19z m3040 -4 c0 -5 -4 -10
-10 -10 -5 0 -10 5 -10 10 0 6 5 10 10 10 6 0 10 -4 10 -10z m295 -80 c0 -22
-39 -19 -43 3 -3 15 1 18 20 15 12 -2 23 -10 23 -18z m-2545 -24 c0 -11 -19
-15 -25 -6 -3 5 1 10 9 10 9 0 16 -2 16 -4z m1080 -57 c0 -5 -7 -9 -15 -9 -15
0 -20 12 -9 23 8 8 24 -1 24 -14z m-722 -22 c2 -12 -3 -17 -17 -17 -12 0 -21
6 -21 13 0 31 32 34 38 4z m212 -7 c0 -5 -4 -10 -10 -10 -5 0 -10 5 -10 10 0
6 5 10 10 10 6 0 10 -4 10 -10z m890 -42 c0 -11 -36 -19 -54 -12 -16 6 -16 8
1 24 14 13 22 14 36 6 9 -6 17 -14 17 -18z m-713 -4 c-3 -3 -12 -4 -19 -1 -8
3 -5 6 6 6 11 1 17 -2 13 -5z m1593 2 c0 -3 -4 -8 -10 -11 -5 -3 -10 -1 -10 4
0 6 5 11 10 11 6 0 10 -2 10 -4z m-872 -42 c14 9 24 -8 16 -29 -8 -21 -59 -17
-59 5 0 21 18 41 26 28 4 -6 11 -8 17 -4z m-1335 -11 c9 -9 -13 -34 -24 -27
-14 8 -11 34 4 34 8 0 17 -3 20 -7z m-585 -111 c2 -7 -6 -12 -17 -12 -21 0
-27 11 -14 24 9 9 26 2 31 -12z m-128 -12 c0 -5 -2 -10 -4 -10 -3 0 -8 5 -11
10 -3 6 -1 10 4 10 6 0 11 -4 11 -10z m1440 -10 c0 -21 -24 -28 -35 -10 -8 14
3 30 21 30 8 0 14 -9 14 -20z m-286 -76 c10 -25 7 -30 -19 -32 -23 -2 -27 8
-16 46 3 9 30 -1 35 -14z m-344 -59 c0 -8 -4 -15 -9 -15 -13 0 -22 16 -14 24
11 11 23 6 23 -9z m818 -8 c2 -12 -3 -17 -17 -17 -23 0 -24 1 -15 25 8 19 28
15 32 -8z m1207 2 c5 -5 -4 -9 -22 -9 -32 0 -48 11 -36 24 8 7 44 -2 58 -15z
m-1928 5 c-3 -3 -12 -4 -19 -1 -8 3 -5 6 6 6 11 1 17 -2 13 -5z m843 -4 c0 -5
-4 -10 -9 -10 -6 0 -13 5 -16 10 -3 6 1 10 9 10 9 0 16 -4 16 -10z m-660 -10
c0 -5 -4 -10 -9 -10 -6 0 -13 5 -16 10 -3 6 1 10 9 10 9 0 16 -4 16 -10z m49
1 c13 -8 13 -12 1 -26 -13 -16 -15 -16 -27 1 -20 27 -3 43 26 25z m-624 -11
c8 -13 -14 -42 -26 -34 -5 3 -9 14 -9 25 0 20 24 26 35 9z m2245 -24 c0 -11
-19 -15 -25 -6 -3 5 1 10 9 10 9 0 16 -2 16 -4z m-1100 -16 c0 -5 -4 -10 -10
-10 -5 0 -10 5 -10 10 0 6 5 10 10 10 6 0 10 -4 10 -10z m270 0 c0 -5 -4 -10
-10 -10 -5 0 -10 5 -10 10 0 6 5 10 10 10 6 0 10 -4 10 -10z m-1010 -10 c0 -5
-4 -10 -9 -10 -6 0 -13 5 -16 10 -3 6 1 10 9 10 9 0 16 -4 16 -10z m560 -5 c0
-8 -9 -15 -20 -15 -11 0 -20 7 -20 15 0 8 9 15 20 15 11 0 20 -7 20 -15z
m-780 -125 c0 -5 -4 -10 -10 -10 -5 0 -10 5 -10 10 0 6 5 10 10 10 6 0 10 -4
10 -10z m80 -90 c0 -5 -9 -10 -20 -10 -11 0 -20 5 -20 10 0 6 9 10 20 10 11 0
20 -4 20 -10z"/>
<path d="M4402 1323 c2 -10 11 -19 20 -21 12 -2 15 2 11 17 -7 25 -36 28 -31
4z"/>
<path d="M455 1236 c-25 -21 -28 -28 -19 -43 9 -14 8 -21 -5 -30 -13 -10 -14
-14 -3 -21 11 -7 8 -11 -8 -15 -19 -5 -21 -2 -17 19 5 27 -19 56 -27 33 -9
-28 -1 -112 12 -116 7 -3 12 4 12 16 0 12 5 21 11 21 6 0 9 -9 6 -20 -3 -11
-1 -22 4 -25 5 -3 8 -169 8 -369 l0 -363 -35 -6 c-33 -6 -74 -31 -74 -46 0 -3
83 -6 185 -6 102 0 185 3 185 7 0 14 -54 48 -76 48 l-24 0 0 220 0 220 25 0
c18 0 25 5 25 20 0 15 -7 20 -25 20 -24 0 -25 2 -25 70 0 56 -3 70 -15 70 -8
0 -15 8 -15 19 0 27 23 68 36 64 24 -8 63 38 70 82 10 71 -24 125 -80 125 -8
0 -16 7 -20 15 -9 25 -76 19 -111 -9z m95 -56 c0 -5 -15 -10 -32 -10 -25 0
-29 3 -18 10 20 13 50 13 50 0z"/>
<path d="M4860 1120 c0 -47 3 -60 15 -60 12 0 15 13 15 60 0 47 -3 60 -15 60
-12 0 -15 -13 -15 -60z"/>
<path d="M4850 700 l0 -60 40 0 40 0 0 60 0 60 -40 0 -40 0 0 -60z"/>
<path d="M610 720 c-13 -8 -12 -10 3 -10 9 0 17 5 17 10 0 12 -1 12 -20 0z"/>
<path d="M4697 224 c-10 -10 17 -44 35 -44 19 0 22 8 12 34 -6 16 -35 22 -47
10z"/>
<path d="M4756 222 c-3 -4 4 -16 14 -25 25 -21 16 -43 -23 -57 -62 -21 -100
-82 -62 -96 11 -5 13 -10 5 -19 -17 -20 0 -25 95 -25 100 0 114 7 119 55 2 14
-1 28 -7 32 -6 3 -7 1 -4 -4 12 -19 -19 -36 -43 -23 -21 11 -21 12 12 29 28
16 33 24 35 57 2 61 -15 78 -80 82 -30 2 -58 -1 -61 -6z m98 -197 c-4 -8 -15
-15 -25 -15 -21 0 -26 16 -6 23 24 10 36 7 31 -8z"/>
<path d="M439 145 c-38 -21 -65 -76 -50 -103 9 -17 9 -22 -1 -23 -30 -3 51
-17 103 -18 42 -1 60 3 72 17 30 33 17 89 -27 124 -25 21 -62 22 -97 3z"/>
</g>
</svg>
